<svg xmlns="http://www.w3.org/2000/svg" width="512" height="512" viewBox="0 0 512 512">
  <defs>
    <linearGradient id="bg" x1="0" y1="0" x2="1" y2="1">
      <stop offset="0" stop-color="#0ea5e9"/>
      <stop offset="1" stop-color="#22c55e"/>
    </linearGradient>
    <radialGradient id="glow" cx="30%" cy="25%" r="75%">
      <stop offset="0" stop-color="#ffffff" stop-opacity="0.35"/>
      <stop offset="1" stop-color="#ffffff" stop-opacity="0"/>
    </radialGradient>
  </defs>
  <rect width="512" height="512" rx="256" fill="url(#bg)"/>
  <rect width="512" height="512" rx="256" fill="url(#glow)"/>
  <g fill="#ffffff" opacity="0.9">
    <path opacity="0.25" d="M256 284c56 0 104 46 104 102v38H152v-38c0-56 48-102 104-102z"/>
    <path opacity="0.38" d="M256 108c52 0 94 42 94 94s-42 94-94 94-94-42-94-94 42-94 94-94z"/>
    <path opacity="0.55" d="M256 140c-34.2 0-62 27.8-62 62s27.8 62 62 62 62-27.8 62-62-27.8-62-62-62z"/>
  </g>
</svg>

